<svg xmlns="http://www.w3.org/2000/svg" viewBox="0 0 12 12"><title>prize-cash</title><path d="M6.15,5C5,4.75,5,4.62,5,4.28s.1-.38.15-.42a3.94,3.94,0,0,1,2.57,0,.87.87,0,0,0,.48-1.68,8.15,8.15,0,0,0-1.28-.24V1.32a.88.88,0,0,0-1.76,0V2a2.72,2.72,0,0,0-1.06.46,2.18,2.18,0,0,0-.85,1.82c0,1.83,1.58,2.21,2.53,2.44C6.92,7,7,7.15,7,7.62s-.13.49-.19.53a3.73,3.73,0,0,1-2.51,0,.88.88,0,0,0-.52,1.68,9.36,9.36,0,0,0,1.3.26v.63a.88.88,0,0,0,1.76,0V10a2.68,2.68,0,0,0,1-.44,2.28,2.28,0,0,0,.9-1.94C8.79,5.66,7.14,5.26,6.15,5Z"/></svg>