<svg xmlns="http://www.w3.org/2000/svg" viewBox="0 0 12 12"><title>settings</title><path d="M11.68,6.86V5.08L10.3,4.89a4.4,4.4,0,0,0-.49-1.16l.81-1.14L9.36,1.34l-1.11.84A4.24,4.24,0,0,0,7.09,1.7L6.86.32H5.08L4.89,1.7a4.4,4.4,0,0,0-1.16.49L2.59,1.38,1.34,2.63l.84,1.12A4.24,4.24,0,0,0,1.7,4.91L.32,5.14V6.92l1.38.19a4.4,4.4,0,0,0,.49,1.16L1.38,9.41l1.26,1.25,1.11-.84a4.24,4.24,0,0,0,1.16.48l.23,1.38H6.92l.19-1.38a4.4,4.4,0,0,0,1.16-.49l1.14.81,1.25-1.26L9.82,8.25a4.24,4.24,0,0,0,.48-1.16ZM6,8.7A2.7,2.7,0,1,1,8.7,6,2.7,2.7,0,0,1,6,8.7Z"/></svg>