<svg id="Expanded" xmlns="http://www.w3.org/2000/svg" viewBox="0 0 12 12"><path d="M3.24,11.53,1.86,3.25h8.29L8.77,11.53ZM6.16,8.11l.49.62,0-.23c.87-.14,1.06-.33,1.12-1.09A1.53,1.53,0,0,1,6.7,7.7l-.06-.21ZM7,5.71C6.4,5,6,4.91,5.45,5.27a1.6,1.6,0,0,1,.83.83l-.18.15.77.11.3-.75ZM5.06,7.22l.22.1c-.09-.24-.16-.44-.24-.63a.2.2,0,0,0-.13-.09c-.22,0-.44,0-.66.07l0,0,.18.09c-.35.79-.24,1.25.33,1.54A1.62,1.62,0,0,1,5.06,7.22ZM7.31,6.4l-.65.4c.11.19.23.35.32.53a.25.25,0,0,0,.37.13,1.83,1.83,0,0,0,.24-.13A.22.22,0,0,0,7.67,7C7.55,6.8,7.44,6.61,7.31,6.4Zm-1.83.16a5.34,5.34,0,0,1,.28-.49c.16-.21.08-.35-.09-.48a.94.94,0,0,0-.24-.13.28.28,0,0,0-.24.07c-.14.2-.25.43-.38.65Zm.36,1.13a5.8,5.8,0,0,1-.59,0c-.21,0-.3.06-.32.25a1.17,1.17,0,0,0,0,.32c0,.08.12.18.19.18.24,0,.48,0,.74,0Z"/><path d="M7.25.47a.85.85,0,0,0,.88.92h2.46V2.3H1.41V1.39H3.87A.86.86,0,0,0,4.76.47Z"/></svg>