<svg id="Expanded" xmlns="http://www.w3.org/2000/svg" viewBox="0 0 12 12"><path d="M.37,10.69v-8c.87,0,1.74,0,2.6,0a.35.35,0,0,0,.34-.18c.23-.37.47-.73.72-1.07a.37.37,0,0,1,.27-.15c1.13,0,2.27,0,3.4,0A.37.37,0,0,1,8,1.47c.25.34.49.7.72,1.07A.35.35,0,0,0,9,2.72c.86,0,1.73,0,2.6,0v8ZM3.21,6A2.87,2.87,0,0,0,6.06,9.29,2.87,2.87,0,0,0,8.79,6h1.88V3.65H8.5a.32.32,0,0,1-.3-.17c-.24-.37-.48-.74-.74-1.1a.35.35,0,0,0-.24-.14H4.78a.34.34,0,0,0-.24.13,6.16,6.16,0,0,0-.53.8.82.82,0,0,1-.91.49c-.58,0-1.18,0-1.78,0V6Z"/><path d="M4.12,6.44a1.88,1.88,0,0,1,3.76,0A1.91,1.91,0,0,1,6,8.35,1.91,1.91,0,0,1,4.12,6.44Z"/></svg>