<svg xmlns="http://www.w3.org/2000/svg" viewBox="0 0 12 12"><title>dashboard</title><path d="M7.88,5.41a.76.76,0,0,0-.51-1A.77.77,0,0,0,6.43,5L4.85,8.46a1,1,0,0,0-.14.31,1.34,1.34,0,0,0,2.58.75,1.86,1.86,0,0,0,0-.34Z"/><circle cx="3.87" cy="5.98" r="0.79"/><path d="M6,1.55A5.78,5.78,0,0,0,.23,7.31,5.66,5.66,0,0,0,.94,10l.22.42H3.41a.79.79,0,1,0,0-1.58H2.14a3.89,3.89,0,0,1-.32-1.56,4.18,4.18,0,0,1,8.36,0,4.07,4.07,0,0,1-.32,1.56H8.59a.79.79,0,0,0,0,1.58h2.24l.23-.42a5.65,5.65,0,0,0,.7-2.72A5.77,5.77,0,0,0,6,1.55Z"/></svg>