<svg xmlns="http://www.w3.org/2000/svg" viewBox="0 0 12 12"><title>prize-digital</title><path d="M11.11,3.81A7.53,7.53,0,0,0,6,1.85a7.53,7.53,0,0,0-5.11,2A.84.84,0,1,0,2,5.05,5.86,5.86,0,0,1,6,3.54a5.86,5.86,0,0,1,4,1.51.85.85,0,0,0,.57.23A.87.87,0,0,0,11.17,5,.84.84,0,0,0,11.11,3.81Z"/><path d="M2.5,6.2A.84.84,0,1,0,3.59,7.48a3.88,3.88,0,0,1,4.82,0A.82.82,0,0,0,9,7.69.84.84,0,0,0,9.5,6.2,5.57,5.57,0,0,0,2.5,6.2Z"/><path d="M4.17,8.63A.85.85,0,0,0,4,9.82.83.83,0,0,0,5.2,10a1.32,1.32,0,0,1,1.6,0,.81.81,0,0,0,.51.18.85.85,0,0,0,.52-1.52A3,3,0,0,0,4.17,8.63Z"/></svg>