<?xml version="1.0" encoding="utf-8"?>
<!-- Generator: Adobe Illustrator 24.1.0, SVG Export Plug-In . SVG Version: 6.00 Build 0)  -->
<svg version="1.1" id="Layer_1" xmlns="http://www.w3.org/2000/svg" xmlns:xlink="http://www.w3.org/1999/xlink" x="0px" y="0px"
	 viewBox="0 0 12 12" style="enable-background:new 0 0 12 12;" xml:space="preserve">
<style type="text/css">
	.st0{fill:#44A705;}
</style>
<path class="st0" d="M4.7,3.7c1-0.7,2.4-0.6,3.3,0.2L7.6,4.2l2,1L9.4,2.9L9,3.3c-1.5-1.5-3.9-1.5-5.4,0C3.2,3.7,2.9,4.2,2.7,4.7h1.1
	C4,4.3,4.3,3.9,4.7,3.7z"/>
<path class="st0" d="M7.5,8.4C6.5,9.1,5.1,9,4.2,8.2l0.5-0.3l-2-1l0.1,2.2l0.5-0.3c1.5,1.5,3.9,1.5,5.4,0c0.4-0.4,0.7-0.9,0.9-1.5
	H8.5C8.2,7.7,7.9,8.1,7.5,8.4z"/>
<path d="M0.1,6.4l0.1-0.2c0.1,0.1,0.2,0.1,0.3,0.1c0.1,0,0.2,0,0.2-0.1c0-0.2-0.5-0.1-0.5-0.4c0-0.2,0.1-0.3,0.4-0.3
	c0.1,0,0.2,0,0.3,0.1L0.8,5.8c-0.1,0-0.2-0.1-0.3-0.1c-0.1,0-0.2,0-0.2,0.1c0,0.2,0.5,0.1,0.5,0.4c0,0.2-0.1,0.3-0.4,0.3
	C0.4,6.5,0.2,6.4,0.1,6.4z"/>
<path d="M1,6c0-0.3,0.2-0.5,0.5-0.5c0.2,0,0.3,0.1,0.4,0.2L1.8,5.8C1.7,5.7,1.6,5.7,1.5,5.7C1.4,5.7,1.2,5.8,1.2,6
	c0,0.2,0.1,0.3,0.3,0.3c0.1,0,0.2,0,0.2-0.1l0.1,0.1C1.8,6.4,1.7,6.5,1.5,6.5C1.2,6.5,1,6.3,1,6z"/>
<path d="M2.6,6.3H2.2L2.1,6.5H1.9l0.4-0.9h0.2L3,6.5H2.7L2.6,6.3z M2.6,6.1L2.4,5.7L2.3,6.1H2.6z"/>
<path d="M3.9,5.5v0.9H3.7L3.3,5.9v0.6H3.1V5.5h0.2l0.5,0.6V5.5L3.9,5.5z"/>
<path d="M5.2,6.3v0.2H4.4V6.3L4.8,6c0.1-0.1,0.1-0.1,0.1-0.2c0-0.1-0.1-0.1-0.1-0.1c-0.1,0-0.1,0-0.2,0.1L4.4,5.7
	c0.1-0.1,0.2-0.2,0.4-0.2c0.2,0,0.3,0.1,0.3,0.3c0,0.1,0,0.2-0.2,0.3L4.7,6.3H5.2z"/>
<path d="M6.3,6.5L6.1,6.2H5.9v0.3H5.7V5.5h0.4c0.3,0,0.4,0.1,0.4,0.3c0,0.1-0.1,0.2-0.2,0.3l0.2,0.3L6.3,6.5z M6.1,5.7H5.9V6h0.2
	C6.2,6,6.3,6,6.3,5.9S6.2,5.7,6.1,5.7L6.1,5.7z"/>
<path d="M7.4,6.3v0.2H6.7V5.5h0.7v0.2H6.9v0.2h0.4v0.2H6.9v0.2L7.4,6.3z"/>
<path d="M7.5,6c0-0.3,0.2-0.5,0.5-0.5c0.2,0,0.3,0.1,0.4,0.2L8.2,5.8C8.2,5.7,8.1,5.7,8,5.7C7.8,5.7,7.7,5.8,7.7,6
	c0,0.2,0.1,0.3,0.3,0.3c0.1,0,0.2,0,0.2-0.1l0.1,0.1C8.3,6.4,8.2,6.5,8,6.5C7.7,6.5,7.5,6.3,7.5,6z"/>
<path d="M9,6.1v0.3H8.8V6.1L8.4,5.5h0.2L8.9,6l0.3-0.4h0.2L9,6.1z"/>
<path d="M9.3,6c0-0.3,0.2-0.5,0.5-0.5c0.2,0,0.3,0.1,0.4,0.2l-0.1,0.1C10,5.7,9.9,5.7,9.8,5.7C9.7,5.7,9.5,5.8,9.5,6
	c0,0.2,0.1,0.3,0.3,0.3c0.1,0,0.2,0,0.2-0.1l0.1,0.1C10.1,6.4,10,6.5,9.8,6.5C9.5,6.5,9.3,6.3,9.3,6z"/>
<path d="M10.4,5.5h0.2v0.8h0.5v0.2h-0.7V5.5z"/>
<path d="M11.9,6.3v0.2h-0.7V5.5h0.7v0.2h-0.5v0.2h0.4v0.2h-0.4v0.2L11.9,6.3z"/>
<path d="M1.5,4.7c-0.2,0-0.3-0.2-0.3-0.3V2.1c0-0.6,0.5-1,1-1h2.3c0.2,0,0.3,0.2,0.3,0.3c0,0.2-0.2,0.3-0.3,0.3H2.2
	C2,1.7,1.9,1.9,1.9,2.1v2.3C1.9,4.5,1.7,4.7,1.5,4.7z"/>
<path d="M10.8,4.7c-0.2,0-0.3-0.2-0.3-0.3V2.1c0-0.2-0.1-0.3-0.3-0.3H7.8c-0.2,0-0.3-0.2-0.3-0.3S7.6,1,7.8,1h2.3c0.6,0,1,0.5,1,1
	v2.3C11.1,4.5,11,4.7,10.8,4.7z"/>
<path d="M10.1,11H7.8c-0.2,0-0.3-0.2-0.3-0.3s0.2-0.3,0.3-0.3h2.3c0.2,0,0.3-0.1,0.3-0.3V7.7c0-0.2,0.2-0.3,0.3-0.3s0.3,0.2,0.3,0.3
	v2.3C11.1,10.5,10.6,11,10.1,11z"/>
<path d="M4.5,11H2.2c-0.6,0-1-0.5-1-1V7.7c0-0.2,0.2-0.3,0.3-0.3s0.3,0.2,0.3,0.3v2.3c0,0.2,0.1,0.3,0.3,0.3h2.3
	c0.2,0,0.3,0.2,0.3,0.3S4.6,11,4.5,11L4.5,11L4.5,11z"/>
</svg>
